<?xml version="1.0" encoding="iso-8859-1"?>
<!-- Generator: Adobe Illustrator 16.0.0, SVG Export Plug-In . SVG Version: 6.00 Build 0)  -->
<!DOCTYPE svg PUBLIC "-//W3C//DTD SVG 1.1//EN" "http://www.w3.org/Graphics/SVG/1.1/DTD/svg11.dtd">
<svg version="1.1" id="Capa_1" xmlns="http://www.w3.org/2000/svg" xmlns:xlink="http://www.w3.org/1999/xlink" x="0px" y="0px"
	 width="161.897px" height="161.897px" viewBox="0 0 161.897 161.897" style="enable-background:new 0 0 161.897 161.897;"
	 xml:space="preserve">
<g>
	<path d="M92.73,124.953c29.18-5.514,51.251-31.144,51.251-61.928C143.981,28.226,115.74,0,80.938,0S17.916,28.226,17.916,63.025
		c0,31.3,22.248,57.276,52.161,62.188c3.183,0.524,5.218,3.289,5.218,6.52v14.312c0,2.787-2.26,5.05-5.05,5.05h-5.86
		c-2.826,0-5.118,2.29-5.118,5.116v0.57c0,2.826,2.292,5.117,5.118,5.117h33.126c2.826,0,5.119-2.291,5.119-5.117v-0.57
		c0-2.826-2.293-5.116-5.119-5.116h-5.488c-2.787,0-5.05-2.263-5.05-5.05v-14.439C86.973,128.383,89.562,125.55,92.73,124.953z
		 M29.789,63.027c0-28.249,22.912-51.149,51.149-51.149c28.252,0,51.147,22.905,51.147,51.149
		c0.003,28.245-22.897,51.152-51.147,51.152C52.696,114.181,29.789,91.272,29.789,63.027z"/>
	<path d="M126.367,49.697c-1.081-3.039-3.323-7.759-5.084-10.462c-12.105-18.553-26.321-19.692-37.216,5.384
		c-0.265,0.613-0.524,1.193-0.779,1.743c-0.695-0.087-1.4-0.147-2.118-0.147c-4.679,0-8.913,1.884-11.995,4.933
		c-0.52-0.161-1.023-0.366-1.469-0.685c-11.693-8.341-2.637-41.797-21.629-19.64c-2.1,2.447-5.072,6.753-6.532,9.628
		C29.37,60.517,35.843,73.487,64.097,69.822c0.43-0.056,0.855-0.093,1.277-0.117c1.99,4.882,6.178,8.62,11.333,10.016
		c1.112,15.226-35.904,24.561-6.18,30.135c3.163,0.594,8.385,1.016,11.607,0.84c22.77-1.241,30.652-13.652,12.425-36.879
		c2.29-2.904,3.668-6.562,3.668-10.549c0-1.399-0.188-2.751-0.505-4.052C110.911,51.171,136.431,78.056,126.367,49.697z"/>
</g>
<g>
</g>
<g>
</g>
<g>
</g>
<g>
</g>
<g>
</g>
<g>
</g>
<g>
</g>
<g>
</g>
<g>
</g>
<g>
</g>
<g>
</g>
<g>
</g>
<g>
</g>
<g>
</g>
<g>
</g>
</svg>
